<svg xmlns="http://www.w3.org/2000/svg" viewBox="0 0 337 42.12"><title>reparadom</title><path d="M21.48,42.12l-8.76-15.9H10.26v15.9H0V0H17.22a19,19,0,0,1,8.49,1.74A12,12,0,0,1,31,6.51a13.31,13.31,0,0,1,1.74,6.75,12.54,12.54,0,0,1-2.37,7.5,12.76,12.76,0,0,1-7,4.68l9.72,16.68ZM10.26,19h6.36a5.82,5.82,0,0,0,4.23-1.38,5.21,5.21,0,0,0,1.41-3.9A5,5,0,0,0,20.85,9.9a5.82,5.82,0,0,0-4.23-1.38H10.26Z" style="fill:#ccc"/><path d="M49.38,8.22v8.52H63.12v7.92H49.38V33.9H64.92v8.22H39.12V0h25.8V8.22Z" style="fill:#ccc"/><path d="M102,20.25a12.35,12.35,0,0,1-5.16,4.89A18.17,18.17,0,0,1,88.2,27H81.84V42.12H71.58V0H88.2a18.91,18.91,0,0,1,8.52,1.74,12,12,0,0,1,5.22,4.8,14,14,0,0,1,1.74,7A13.56,13.56,0,0,1,102,20.25ZM91.8,17.46a5.15,5.15,0,0,0,1.44-3.9,5.15,5.15,0,0,0-1.44-3.9,6.12,6.12,0,0,0-4.38-1.38H81.84V18.84h5.58A6.12,6.12,0,0,0,91.8,17.46Z" style="fill:#ccc"/><path d="M130.24,34.68H114.52L112,42.12H101.26L116.5,0h11.88l15.24,42.12H132.76Zm-2.64-7.92-5.22-15.42-5.16,15.42Z" style="fill:#ccc"/><path d="M169.72,42.12,161,26.22H158.5v15.9H148.24V0h17.22A19,19,0,0,1,174,1.74a12,12,0,0,1,5.25,4.77,13.31,13.31,0,0,1,1.74,6.75,12.54,12.54,0,0,1-2.37,7.5,12.76,12.76,0,0,1-7,4.68l9.72,16.68ZM158.5,19h6.36a5.82,5.82,0,0,0,4.23-1.38,5.21,5.21,0,0,0,1.41-3.9,5,5,0,0,0-1.41-3.78,5.82,5.82,0,0,0-4.23-1.38H158.5Z" style="fill:#ccc"/><path d="M213.58,34.68H197.86l-2.52,7.44H184.6L199.84,0h11.88L227,42.12H216.1Zm-2.64-7.92-5.22-15.42-5.16,15.42Z" style="fill:#ccc"/><path d="M260.15,2.24a13.07,13.07,0,0,1,5.34,5.13A15.06,15.06,0,0,1,267.38,15a15.05,15.05,0,0,1-1.89,7.59,12.92,12.92,0,0,1-5.36,5.15,17,17,0,0,1-8,1.83H241.18V.42H252.1A16.92,16.92,0,0,1,260.15,2.24Zm-2.24,19A8.29,8.29,0,0,0,260.15,15a8.44,8.44,0,0,0-2.24-6.27,8.44,8.44,0,0,0-6.27-2.24h-3.36V23.42h3.36A8.55,8.55,0,0,0,257.91,21.21Z" style="fill:#ccc"/><path d="M277.61,27.94a14.28,14.28,0,0,1-5.44-5.33,15,15,0,0,1-2-7.71,14.82,14.82,0,0,1,2-7.68,14.3,14.3,0,0,1,5.44-5.31,15.82,15.82,0,0,1,15.07,0,14.05,14.05,0,0,1,5.4,5.31,15.09,15.09,0,0,1,2,7.68,15,15,0,0,1-2,7.71,14.17,14.17,0,0,1-5.4,5.33,15.78,15.78,0,0,1-15.05,0Zm13.12-6.89a8.83,8.83,0,0,0,2.1-6.15,8.8,8.8,0,0,0-2.1-6.16,7.17,7.17,0,0,0-5.58-2.3,7.27,7.27,0,0,0-5.63,2.28,8.77,8.77,0,0,0-2.1,6.18,8.81,8.81,0,0,0,2.1,6.17,8,8,0,0,0,11.21,0Z" style="fill:#ccc"/><path d="M337,.42V29.56h-7.1V12.08l-6.52,17.48h-5.73L311.09,12V29.56H304V.42h8.39l8.18,20.17L328.65.42Z" style="fill:#ccc"/><rect x="241.28" y="32.65" width="46.47" height="9.35" style="fill:#0071bc"/><rect x="290.53" y="32.65" width="46.47" height="9.35" style="fill:#ff1d25"/></svg>