<svg version="1.1" id="icon-reparadom" xmlns="http://www.w3.org/2000/svg" xmlns:xlink="http://www.w3.org/1999/xlink" x="0px" y="0px"
	 viewBox="0 0 603.1 602.9" style="enable-background:new 0 0 603.1 602.9;" xml:space="preserve">
	<style type="text/css">
		.st0-reparadom{fill:#CCCCCC;}
		.st1-reparadom{fill:#0071BC;}
		.st2-reparadom{fill:#FF1D25;}
	</style>
	<title>logo_icon_reparadom</title>
	<g>
	<path class="st0-reparadom" d="M90.1,318c-27.2-18.2-43.7-42.5-49.8-73.8c-11.8-60.4,33-121.5,94-128.3c35-3.9,65.3,6.1,90.8,30.3
		c2.2,2.1,4,2.4,6.8,1.4c11.4-4.2,22.8-8.1,34.3-12c9.7-3.3,17.6,0.1,20.4,8.5c2.7,8.1-1.5,15.3-11.1,18.7c-8,2.9-16.1,5.8-24.2,8.3
		c-4.3,1.3-5.3,2.5-3.3,7.2c18.1,40.7,13.4,79-13,114.7c-7.4,10-16.9,17.9-27.8,25.1c46.2,21.7,75.1,57.1,87,106.7
		c10.7-4.9,21.9-3.5,33-3.6c14-0.1,27.9-0.2,41.9,0.1c3.7,0.1,4.7-0.9,4.6-4.6c-0.2-6.2-0.5-12.3,0.8-18.5
		c4-19.7,21.1-33.9,41.1-34.4c13.3-0.2,26.7-0.2,40.1,0c23.2,0.4,42,19.2,42.3,42.5c0.1,4.8-1.6,11.1,0.8,13.8c2.8,3.2,9.3,1,14.3,1
		c15.3,0.2,30.7,0,46,0.1c25.5,0.1,44.1,18.7,44.2,44.2c0.1,40.3,0.1,80.5,0,120.8c0,11.3-5.5,16.8-16.9,16.8
		c-189.6,0-379.1,0-568.7,0c-11.8,0-17.2-5.4-17.2-17.1c0-43.5-0.7-86.9,0.2-130.4c1.2-61.7,29.9-106.7,84.8-134.9L90.1,318z
		 M134.2,455.5c0-38.3,0-76.5,0-114.8c0-2.6,0.7-5.1-3.7-4.4C76,344.9,36.6,388,30.3,438.2c-3.2,25-0.6,50.2-1.4,75.3
		c-0.1,4.2,2.5,3.2,4.7,3.2c18.5,0,37.1,0.1,55.6,0c5.3,0,9.9,1.3,13.2,5.6c3.5,4.5,4.2,9.5,1.8,14.6c-2.7,5.8-7.5,8.6-13.9,8.6
		c-18.9,0-37.9,0.1-56.8-0.1c-3.6,0-4.9,0.7-4.6,4.5c0.4,6.4,0.4,12.8,0,19.1c-0.2,4.2,0.9,5.3,5.1,5.2c31.5-0.2,63-0.2,94.5,0
		c4.6,0,5.9-1,5.8-5.8C134.1,530.8,134.2,493.1,134.2,455.5z M162.9,454.9c0,38.1,0,76.1,0,114.2c0,2.8-0.5,5.1,4,5.1
		c32.5-0.2,65-0.2,97.5,0c3.4,0,3.9-1.2,3.8-4.1c-0.2-6.8-0.3-13.6,0-20.3c0.2-4-1.3-4.5-4.7-4.4c-18.1,0.2-36.3,0.1-54.4,0
		c-2.2,0.1-4.4,0-6.5-0.5c-6.9-1.7-11.5-8.1-10.9-15.1c0.6-7.4,6.6-13,14.5-13c19.1-0.2,38.3-0.2,57.4,0c3.6,0,4.7-0.8,4.6-4.5
		c-0.2-18.5-0.1-37.1-0.1-55.6c-0.1-60.6-40.4-108.9-99.9-120.1c-4.7-0.9-5.5,0.3-5.5,4.8C163,379.2,162.9,417.1,162.9,454.9z
		 M435.4,574.1h35.9c32.7,0,65.3,0,98-0.1c2.2,0,5.3,1.5,5.2-3.2c-0.2-13.7-0.1-27.5,0-41.2c0-2.6-0.6-3.4-3.3-3.4
		c-13.7,0.1-27.5,0.1-41.2,0c-2.5,0-3.6,0.6-3.4,3.3c0.7,8-5.2,15.1-13.3,15.9c-0.3,0-0.6,0-0.9,0.1c-8.3,0-14-5.9-14.4-15.6
		c-0.1-3-0.9-3.6-3.7-3.6c-39.1,0.1-78.1,0.1-117.2,0c-2.8,0-3.6,0.7-3.7,3.6c-0.4,9.7-6.1,15.7-14.4,15.6
		c-8.1-0.1-13.8-6-14.1-15.3c-0.1-3.2-1.1-3.9-4.1-3.8c-13.3,0.2-26.7,0.2-40.1,0c-3.2,0-3.9,1-3.9,4c0.2,12.8,0.3,25.5-0.1,38.3
		c-0.1,4.8,1.3,5.8,5.9,5.7C346.9,574.1,391.1,574.1,435.4,574.1z M436,449.7c-40.9,0-81.7,0-122.6,0c-10.9,0-16.4,5.6-16.5,16.6
		c0,9,0.1,17.9-0.1,26.9c-0.1,3.2,0.5,4.5,4.1,4.4c13.2-0.2,26.3-0.2,39.5,0c3.2,0,4.4-0.5,4.4-4.1c0.2-9.1,6.2-15.1,14.3-15.1
		s13.9,6,14.2,15.2c0.1,3,0.7,4,3.9,4c38.9-0.1,77.7-0.1,116.6,0c3,0,4-0.6,4.1-3.8c0.3-9.3,6-15.2,14.1-15.3
		c8.3-0.1,14,5.8,14.4,15.5c0.1,2.9,0.8,3.7,3.7,3.6c13.6-0.1,27.1-0.1,40.7,0c2.9,0,3.7-0.8,3.7-3.7c-0.2-9,0-17.9-0.1-26.9
		c0-12.1-5.3-17.3-17.6-17.3C516.6,449.7,476.3,449.7,436,449.7L436,449.7z M148.2,306.2c61.1,0.2,100.7-64.7,72.6-118.7
		c-1.9-3.6-3.4-4.8-7.6-3.3c-46.8,16.5-93.6,32.8-140.5,48.9c-3.9,1.4-4.6,3.1-4,6.9C75.5,277.7,109.4,306.1,148.2,306.2z M70,203.7
		l127-44.2c-22-15.2-45.1-20.1-70.2-12.9C98.1,155,79.7,174.1,70,203.7z M435.5,421h20.9c13,0,13,0,12.8-12.9
		c-0.2-10.1-5.8-15.7-16-15.8c-9-0.1-17.9,0.4-26.8-0.1c-21.5-1.2-25.1,5.8-24.2,24.5c0.2,3.2,0.7,4.4,4.2,4.3
		C416,420.9,425.8,421,435.5,421z"/>
	<circle class="st0-reparadom" cx="184" cy="227.3" r="16.5"/>
	<path class="st1-reparadom" d="M454.8,101.1c-16.8,0-30.4,13.6-30.4,30.4c0,16.8,13.6,30.4,30.4,30.4c16.8,0,30.4-13.6,30.4-30.4
		C485.2,114.7,471.7,101.1,454.8,101.1C454.9,101.1,454.8,101.1,454.8,101.1z"/>
	<path class="st2-reparadom" d="M532.9,119.1c-2.6,0-5.1,0-7.7,0c-3.2,0-5.2-1.5-6-4.5c-1.6-5.8-3.9-11.3-6.8-16.5c-1.6-2.9-1.3-5.1,1-7.5
		c1.8-1.8,3.6-3.6,5.4-5.4c2.6-2.4,2.8-6.3,0.4-8.9c-0.1-0.1-0.3-0.3-0.4-0.4c-2.7-2.8-5.4-5.5-8.2-8.2c-2.8-2.8-6.5-2.7-9.3,0
		c-1.8,1.7-3.4,3.4-5.2,5.1c-2.6,2.6-4.8,2.9-7.9,1.1c-5.1-2.9-10.5-5.2-16.2-6.7c-3.2-0.9-4.7-2.8-4.7-6.1c0-2.6,0-5.1,0-7.7
		c0.1-3.5-2.7-6.4-6.2-6.5c-0.1,0-0.2,0-0.4,0c-1.9,0-3.9,0-5.8,0s-3.9,0-5.8,0c-3.5-0.2-6.5,2.5-6.6,6c0,0.2,0,0.4,0,0.6
		c0,2.6,0,5.1,0,7.7c0,3.1-1.5,5.1-4.4,5.9c-5.8,1.6-11.4,3.9-16.7,6.9c-2.8,1.6-5.1,1.2-7.5-1.1c-1.8-1.8-3.5-3.6-5.3-5.3
		c-2.9-2.8-6.6-2.8-9.5,0c-2.7,2.7-5.4,5.4-8.1,8.1c-2.8,2.9-2.8,6.5,0,9.5c1.7,1.8,3.5,3.4,5.2,5.2c2.5,2.5,2.8,4.7,1.1,7.7
		c-2.9,5.1-5.2,10.6-6.8,16.4c-0.9,3.1-2.8,4.5-6,4.6c-2.6,0-5.1,0-7.7,0c-3.5-0.1-6.4,2.6-6.6,6c0,0.2,0,0.4,0,0.6
		c0,3.9,0,7.7,0,11.6c-0.1,3.5,2.6,6.4,6.1,6.5c0.1,0,0.2,0,0.4,0c2.6,0,5.2,0,7.9,0c2.8-0.2,5.3,1.7,5.9,4.5
		c1.6,5.8,3.9,11.3,6.8,16.5c1.7,2.9,1.3,5.1-1.1,7.6c-1.7,1.8-3.5,3.5-5.3,5.3c-2.6,2.3-2.8,6.3-0.4,8.9c0.1,0.2,0.3,0.3,0.4,0.4
		c2.7,2.8,5.4,5.5,8.2,8.2c2.4,2.6,6.3,2.8,8.9,0.4c0.1-0.1,0.3-0.3,0.4-0.4c1.8-1.7,3.4-3.4,5.2-5.1c2.6-2.6,4.8-2.9,7.9-1.1
		c5.1,2.9,10.5,5.1,16.2,6.7c3.3,0.9,4.7,2.8,4.7,6.3c0,2.5,0,5,0,7.5c-0.1,3.5,2.7,6.4,6.2,6.5c0.1,0,0.2,0,0.4,0
		c3.9,0,7.7,0,11.6,0c3.5,0.2,6.5-2.5,6.6-6c0-0.2,0-0.4,0-0.6c0-2.4,0-4.7,0-7.1c0-3.9,1.3-5.6,5-6.6c5.5-1.5,10.8-3.7,15.8-6.6
		c3.2-1.8,5.4-1.5,8,1.1c1.7,1.7,3.3,3.4,5,5c2.9,2.8,6.6,2.8,9.5,0c2.7-2.7,5.4-5.4,8.1-8.1c2.8-2.9,2.8-6.5,0-9.5
		c-1.7-1.8-3.4-3.4-5.1-5.2c-2.5-2.5-2.8-4.7-1.1-7.7c2.9-5.1,5.2-10.6,6.8-16.4c0.8-3.1,2.8-4.5,6-4.6c2.6,0,5.1,0,7.7,0
		c3.5,0.1,6.4-2.6,6.6-6.1c0-0.2,0-0.4,0-0.6c0-3.9,0-7.7,0-11.6c0.1-3.5-2.6-6.4-6.1-6.5C533.1,119.1,533,119.1,532.9,119.1z
		 M454.7,173.1c-23,0-41.6-18.7-41.6-41.7c0-23,18.7-41.6,41.7-41.6c23,0,41.6,18.7,41.6,41.7c0,0,0,0,0,0
		C496.4,154.6,477.7,173.2,454.7,173.1C454.7,173.1,454.7,173.1,454.7,173.1L454.7,173.1z"/>
	<path class="st1-reparadom" d="M603.1,45.7c0-27.5-18.2-45.7-45.7-45.7c-34.3,0-68.5,0-102.8,0c-34.5,0-68.9,0-103.4,0
		c-26.2,0-44.7,18.6-44.7,44.9c0,56.2,0,112.4,0,168.6c0,26.3,18.5,44.8,44.7,44.9c18.3,0.1,36.7,0.1,55-0.1c4.3,0,5.8,0.8,5.7,5.5
		c-0.4,11.4,0.1,22.7-0.2,34.1c-0.2,7.4,1.6,13.5,8.8,16.7s12.9,0,18.1-5.3c15.5-15.7,31.3-31.3,46.8-47c2.4-2.7,5.8-4.1,9.3-4
		c20.7,0.2,41.4,0.1,62.2,0.1c28,0,46.2-18.1,46.2-45.9C603.1,156.9,603.1,101.3,603.1,45.7z M550.1,140.4
		c-1.1,8.4-8.3,14.4-16.8,14.7c-1.5,0-3.3-0.3-4.3,0.4s-1.1,2.5-1.7,3.9c-0.9,2.1-1.7,4.3-2.8,6.3c-0.6,0.8-0.5,2,0.3,2.6
		c0,0,0.1,0.1,0.1,0.1c3.3,2.9,5.8,6.4,6.5,10.8c1.1,5.3-0.4,10.9-4.1,14.9c-3,3.3-6.2,6.5-9.5,9.6c-6.9,6.7-17.8,6.7-24.6-0.1
		c-3-2.8-3-2.8-6.7-1.1c-2.3,1-4.6,1.9-7,2.7c-0.9,0.2-1.4,1-1.3,1.9c0.1,2.4-0.1,4.8-0.6,7.2c-1.8,6.8-6.4,10.9-13.2,12.7
		c-0.4,0.1-0.8,0.3-1.2,0.4h-17.1c-0.6-0.2-1.1-0.4-1.7-0.6c-4.6-1.2-8.5-4.1-10.9-8.2c-2.1-3.5-2.6-7.4-2.4-11.3
		c0.2-1-0.4-1.9-1.4-2.1c0,0-0.1,0-0.1,0c-2.3-0.8-4.5-1.7-6.8-2.6c-1.3-0.5-2.6-1.7-3.7-1.5s-2.1,1.8-3.2,2.7
		c-6.7,6.6-17.5,6.7-24.3,0.2c-3.3-3.1-6.6-6.3-9.6-9.7c-3.8-4.1-5.3-9.7-4.1-15.1c0.8-3.8,2.7-7.2,5.5-9.7c2.1-2.1,2.1-2.1,0.9-4.8
		c-0.8-1.9-1.7-3.8-2.4-5.7c-1.5-3.7-1.4-3.7-5.3-3.8c-8.4,0.1-15.7-5.9-17.3-14.2c-0.1-0.3-0.2-0.6-0.3-0.8v-17.2
		c0.1-0.3,0.3-0.7,0.4-1c1.7-8.1,8.8-14,17.1-14c4.1-0.1,4.1-0.1,5.6-3.9c0.9-2.2,1.8-4.4,2.8-6.5c0.7-0.9,0.5-2.1-0.4-2.8
		c0,0,0,0-0.1,0c-3.2-2.9-5.7-6.3-6.5-10.7c-1.2-5.4,0.4-11,4.1-15.1c3.1-3.4,6.3-6.6,9.6-9.7c7-6.5,17.4-6.6,24.1,0.2
		c2.5,2.5,4.3,3.1,7.3,1.2c2.1-1.1,4.3-2,6.6-2.6c0.9-0.1,1.6-1,1.5-2c0,0,0,0,0,0c-0.1-2.1,0.1-4.1,0.4-6.1
		c1.5-8,8.5-13.9,16.6-14.1c5.2-0.2,10.5-0.1,15.7,0.4c8.2,1.1,14.3,8.1,14.4,16.4c0,3.7,0.8,5.9,4.7,6.6c1.3,0.4,2.6,0.9,3.8,1.5
		c1.2,0.6,2.5,1.2,4.2,2c1-1.3,2.1-2.6,3.2-3.7c6.6-6,16.7-6,23.4,0c3.3,3,6.4,6.1,9.4,9.4c6.8,7.2,6.7,17.6-0.2,24.8
		c-2.8,2.9-2.7,2.9-1.2,6.4c1,2.3,2,4.7,2.8,7.1c0.1,0.9,1,1.5,1.9,1.4c0,0,0,0,0.1,0c4-0.2,8,0.2,11.5,2.4
		c5.5,3.4,8.5,8.4,8.6,14.8C550.8,130.2,550.7,135.3,550.1,140.4L550.1,140.4z"/>
</g>
</svg>
