<svg xmlns="http://www.w3.org/2000/svg" viewBox="0 0 859.88 787.97"><title>logo_icon_reparadom</title><path d="M164.3,945.49,143.08,907a2,2,0,0,0-1.75-1h-3.09a2,2,0,0,0-2,2v36.57a2,2,0,0,1-2,2H112.06a2,2,0,0,1-2-2V841.06a2,2,0,0,1,2-2H154a48.45,48.45,0,0,1,21.66,4.44,30.6,30.6,0,0,1,13.5,12.17,34,34,0,0,1,4.44,17.22,32,32,0,0,1-6,19.14,32.62,32.62,0,0,1-15.48,11.23,2,2,0,0,0-1.11,2.9l21.78,37.36a2,2,0,0,1-1.73,3h-25A2,2,0,0,1,164.3,945.49Zm-28.06-60a2,2,0,0,0,2,2h14.23a14.87,14.87,0,0,0,10.65-3.41l.26-.24a13.35,13.35,0,0,0,3.48-9.83,12.8,12.8,0,0,0-3.49-9.63l-.23-.22a14.89,14.89,0,0,0-10.67-3.41H138.24a2,2,0,0,0-2,2Z" transform="translate(-110.06 -158.56)" style="fill:#ccc"/><path d="M236.06,862v17.74a2,2,0,0,0,2,2h31.05a2,2,0,0,1,2,2V900a2,2,0,0,1-2,2H238.06a2,2,0,0,0-2,2v19.58a2,2,0,0,0,2,2h35.65a2,2,0,0,1,2,2v17a2,2,0,0,1-2,2H211.88a2,2,0,0,1-2-2V841.06a2,2,0,0,1,2-2h61.83a2,2,0,0,1,2,2v17a2,2,0,0,1-2,2H238.06A2,2,0,0,0,236.06,862Z" transform="translate(-110.06 -158.56)" style="fill:#ccc"/><path d="M370.32,890.73a31.42,31.42,0,0,1-13.17,12.47,46.19,46.19,0,0,1-22,4.75H320.88a2,2,0,0,0-2,2v34.58a2,2,0,0,1-2,2H294.7a2,2,0,0,1-2-2V841.06a2,2,0,0,1,2-2h40.41a48.25,48.25,0,0,1,21.74,4.44,30.61,30.61,0,0,1,13.32,12.24,35.88,35.88,0,0,1,4.44,17.87A34.71,34.71,0,0,1,370.32,890.73Zm-25.9-7.25a13.16,13.16,0,0,0,3.55-9.77v-.11a13.13,13.13,0,0,0-3.55-9.76,2.16,2.16,0,0,0-.27-.25,15.64,15.64,0,0,0-11-3.41H320.88a2,2,0,0,0-2,2v23a2,2,0,0,0,2,2h12.24a15.59,15.59,0,0,0,11-3.41A2.1,2.1,0,0,0,344.42,883.48Z" transform="translate(-110.06 -158.56)" style="fill:#ccc"/><path d="M440.94,927.55H403.7a2,2,0,0,0-1.89,1.35l-5.51,16.27a2,2,0,0,1-1.9,1.36H371.28a2,2,0,0,1-1.88-2.68l37.44-103.47a2,2,0,0,1,1.88-1.32h27.51a2,2,0,0,1,1.88,1.32l37.44,103.47a2,2,0,0,1-1.88,2.68H450.24a2,2,0,0,1-1.89-1.36l-5.51-16.27A2,2,0,0,0,440.94,927.55Zm-6.19-22.85-10.52-31.08a2,2,0,0,0-3.79,0L410,904.7a2,2,0,0,0,1.89,2.64h20.92A2,2,0,0,0,434.75,904.7Z" transform="translate(-110.06 -158.56)" style="fill:#ccc"/><path d="M542.54,945.49,521.43,907a2,2,0,0,0-1.75-1h-3.2a2,2,0,0,0-2,2v36.57a2,2,0,0,1-2,2H490.3a2,2,0,0,1-2-2V841.06a2,2,0,0,1,2-2h41.94A48.43,48.43,0,0,1,554,843.5a30.58,30.58,0,0,1,13.4,12.17,34,34,0,0,1,4.44,17.22,32,32,0,0,1-6,19.14,32.62,32.62,0,0,1-15.48,11.23,2,2,0,0,0-1.1,2.9L571,943.52a2,2,0,0,1-1.73,3h-25A2,2,0,0,1,542.54,945.49Zm-28.06-60a2,2,0,0,0,2,2h14.23a14.88,14.88,0,0,0,10.66-3.41,2.89,2.89,0,0,0,.25-.24,13.27,13.27,0,0,0,3.48-9.83,12.78,12.78,0,0,0-3.48-9.53c-.08-.07-.16-.15-.24-.21a14.82,14.82,0,0,0-10.67-3.42H516.48a2,2,0,0,0-2,2Z" transform="translate(-110.06 -158.56)" style="fill:#ccc"/><path d="M653.59,927.55H616.35a2,2,0,0,0-1.9,1.35l-5.51,16.27a2,2,0,0,1-1.89,1.36H583.93a2,2,0,0,1-1.88-2.68l37.44-103.47a2,2,0,0,1,1.88-1.32h27.51a2,2,0,0,1,1.88,1.32l37.53,103.47a2,2,0,0,1-1.88,2.68H662.89a2,2,0,0,1-1.89-1.36l-5.51-16.27A2,2,0,0,0,653.59,927.55ZM647.4,904.7l-10.52-31.08a2,2,0,0,0-3.8,0L622.69,904.7a2,2,0,0,0,1.89,2.64H645.5A2,2,0,0,0,647.4,904.7Z" transform="translate(-110.06 -158.56)" style="fill:#ccc"/><path d="M773.85,844.77a33.43,33.43,0,0,1,13.63,13.09,41.53,41.53,0,0,1,0,38.84,33.06,33.06,0,0,1-13.68,13.14,43.42,43.42,0,0,1-20.41,4.67H727.45a2,2,0,0,1-2-2V842.13a2,2,0,0,1,2-2h25.86A43.17,43.17,0,0,1,773.85,844.77Zm-5.71,48.48a21.15,21.15,0,0,0,5.72-15.85.33.33,0,0,1,0-.14,21.56,21.56,0,0,0-5.64-15.84,1,1,0,0,0-.18-.17,21.5,21.5,0,0,0-15.9-5.63h-6.57a2,2,0,0,0-2,2v39.2a2,2,0,0,0,2,2h6.57a21.86,21.86,0,0,0,16-5.64Z" transform="translate(-110.06 -158.56)" style="fill:#ccc"/><path d="M818.4,910.35a36.47,36.47,0,0,1-13.88-13.6,38.34,38.34,0,0,1-5.1-19.67,37.85,37.85,0,0,1,5.1-19.6,36.49,36.49,0,0,1,13.88-13.55,40.36,40.36,0,0,1,38.46,0,35.85,35.85,0,0,1,13.77,13.55,40.28,40.28,0,0,1,0,39.27,36.19,36.19,0,0,1-13.77,13.6,40.27,40.27,0,0,1-38.41,0Zm33.48-17.58a25.69,25.69,0,0,0,0-31.41,18.29,18.29,0,0,0-14.24-5.87,18.51,18.51,0,0,0-14.36,5.82,25.87,25.87,0,0,0-.1,31.4l.2.21a20.41,20.41,0,0,0,28.5-.1Z" transform="translate(-110.06 -158.56)" style="fill:#ccc"/><path d="M969.94,842.13v70.35a2,2,0,0,1-2,2H953.83a2,2,0,0,1-2-2V881a2,2,0,0,0-3.88-.7l-12.28,32.91a2,2,0,0,1-1.87,1.3H922a2,2,0,0,1-1.88-1.3L907.7,880a2,2,0,0,0-3.87.7v31.74a2,2,0,0,1-2,2H887.74a2,2,0,0,1-2-2V842.13a2,2,0,0,1,2-2H905.8a2,2,0,0,1,1.85,1.25L926.15,887a2,2,0,0,0,3.71,0l18.27-45.6a2,2,0,0,1,1.86-1.26h18A2,2,0,0,1,969.94,842.13Z" transform="translate(-110.06 -158.56)" style="fill:#ccc"/><rect x="615.65" y="763.8" width="118.57" height="23.86" rx="2" style="fill:#0071bc"/><rect x="741.31" y="763.8" width="118.57" height="23.86" rx="2" style="fill:#ff1d25"/><path d="M328.5,476.6c-27.19-18.2-43.7-42.52-49.81-73.84-11.79-60.42,33-121.47,94-128.33q52.51-5.91,90.77,30.26c2.22,2.11,4,2.4,6.81,1.35,11.37-4.18,22.84-8.09,34.31-12,9.66-3.3,17.59.07,20.42,8.52,2.7,8.07-1.52,15.26-11.09,18.69-8.05,2.88-16.07,5.84-24.24,8.33-4.31,1.31-5.32,2.55-3.27,7.17,18.07,40.71,13.44,79-13,114.72-7.4,10-16.86,17.87-27.81,25.1,46.25,21.74,75.12,57.09,87,106.68,10.69-4.89,21.94-3.52,33-3.61,14-.1,27.91-.17,41.86.08,3.72.06,4.7-.91,4.59-4.6-.18-6.15-.47-12.32.82-18.46a42.94,42.94,0,0,1,41.13-34.39q20-.35,40.07,0a43.05,43.05,0,0,1,42.26,42.48c.1,4.75-1.6,11.1.8,13.83,2.84,3.22,9.35.95,14.25,1,15.35.16,30.7,0,46,.08,25.49.13,44.08,18.66,44.15,44.2q.15,60.39,0,120.8c0,11.34-5.49,16.79-16.9,16.79q-284.36,0-568.71,0c-11.78,0-17.22-5.4-17.23-17.08,0-43.45-.69-86.92.16-130.36,1.2-61.67,29.91-106.7,84.82-134.93Zm44.15,137.45q0-57.4,0-114.81c0-2.56.7-5.12-3.72-4.41-54.51,8.71-93.87,51.75-100.26,102-3.17,25-.63,50.18-1.35,75.27-.12,4.17,2.51,3.15,4.68,3.15,18.54,0,37.08.08,55.61,0,5.29,0,9.86,1.28,13.18,5.59,3.45,4.48,4.22,9.46,1.82,14.6-2.71,5.77-7.48,8.55-13.87,8.55-18.94,0-37.88.1-56.81-.09-3.6,0-4.86.72-4.64,4.54a167.07,167.07,0,0,1,0,19.12c-.25,4.17.9,5.27,5.15,5.25q47.24-.32,94.48,0c4.6,0,5.87-1,5.84-5.77C372.56,689.4,372.65,651.72,372.65,614.05Zm28.71-.51q0,57.11,0,114.21c0,2.85-.49,5.13,4,5.1,32.48-.23,65-.18,97.46,0,3.36,0,3.91-1.18,3.84-4.1-.18-6.77-.33-13.56.05-20.32.22-4-1.28-4.48-4.73-4.44-18.14.16-36.28.09-54.42,0a27.74,27.74,0,0,1-6.52-.45,14.4,14.4,0,0,1-10.92-15.13c.65-7.39,6.6-13,14.55-13q28.69-.23,57.4,0c3.62,0,4.68-.77,4.63-4.54-.22-18.54-.08-37.08-.1-55.61-.08-60.58-40.36-108.91-99.87-120.13-4.69-.88-5.52.28-5.49,4.81C401.44,537.8,401.36,575.67,401.36,613.54ZM673.8,732.73h35.87q49,0,98-.05c2.18,0,5.29,1.5,5.21-3.22-.23-13.74-.14-27.5,0-41.25,0-2.56-.64-3.41-3.32-3.39q-20.62.2-41.25,0c-2.52,0-3.58.55-3.37,3.27A14.62,14.62,0,0,1,750.79,704c-8.29,0-14-5.88-14.4-15.61-.12-3-.94-3.58-3.73-3.57q-58.59.12-117.18,0c-2.83,0-3.58.67-3.7,3.61-.39,9.7-6.13,15.66-14.42,15.56-8.11-.1-13.82-6-14.07-15.32-.09-3.24-1.09-3.88-4.06-3.85-13.35.15-26.71.17-40.06,0-3.24,0-3.94,1-3.9,4,.15,12.76.31,25.52-.07,38.26-.14,4.81,1.34,5.76,5.88,5.74C585.32,732.66,629.56,732.73,673.8,732.73Zm.64-124.4q-61.31,0-122.6,0c-10.94,0-16.44,5.6-16.5,16.6,0,9,.12,17.94-.08,26.91-.07,3.19.55,4.47,4.14,4.41,13.15-.22,26.31-.18,39.47,0,3.15,0,4.37-.51,4.43-4.1.17-9.1,6.17-15.11,14.29-15.07s13.9,6,14.2,15.19c.1,3,.72,4,3.93,4q58.31-.18,116.61,0c3,0,4-.61,4.06-3.85.26-9.28,6-15.21,14.07-15.31,8.32-.11,14,5.83,14.43,15.55.12,2.92.84,3.65,3.69,3.62q20.34-.22,40.67,0c2.89,0,3.71-.81,3.65-3.67-.17-9,0-17.94-.07-26.92,0-12.1-5.31-17.31-17.59-17.31Q734.84,608.31,674.44,608.33ZM386.58,464.79c61.06.22,100.68-64.68,72.57-118.74-1.88-3.61-3.4-4.76-7.6-3.28Q381.37,367.49,311,391.7c-3.94,1.36-4.63,3.15-4,6.86C313.89,436.3,347.86,464.64,386.58,464.79ZM308.39,362.33l127-44.18c-22-15.16-45.14-20.07-70.17-12.86C336.48,313.57,318.12,332.73,308.39,362.33ZM673.93,579.62H694.8c13,0,13,0,12.77-12.89-.18-10.08-5.84-15.72-16-15.8-8.95-.07-17.91.38-26.83-.09-21.46-1.15-25.07,5.84-24.2,24.53.15,3.23.72,4.42,4.21,4.33C654.44,579.46,664.19,579.62,673.93,579.62Z" transform="translate(-110.06 -158.56)" style="fill:#ccc"/><circle cx="312.33" cy="227.29" r="16.54" style="fill:#ccc"/><path d="M693.21,259.66a30.42,30.42,0,1,0,30.4,30.45A30.38,30.38,0,0,0,693.21,259.66Z" transform="translate(-110.06 -158.56)" style="fill:#0071bc"/><path d="M771.27,277.7c-2.56,0-5.11,0-7.67,0-3.22,0-5.21-1.47-6-4.52a71.91,71.91,0,0,0-6.84-16.52c-1.64-2.88-1.32-5.11,1-7.46,1.78-1.84,3.64-3.59,5.41-5.44a6.32,6.32,0,0,0,0-9.34q-4-4.16-8.2-8.2c-2.83-2.76-6.47-2.74-9.34,0-1.75,1.68-3.43,3.44-5.16,5.15-2.6,2.55-4.8,2.89-7.91,1.11a70.18,70.18,0,0,0-16.17-6.71c-3.22-.89-4.65-2.79-4.69-6.1,0-2.56,0-5.11,0-7.67a6.32,6.32,0,0,0-6.54-6.45c-1.94,0-3.87,0-5.8,0s-3.87,0-5.8,0a6.32,6.32,0,0,0-6.63,6.56c0,2.56,0,5.11,0,7.67,0,3.11-1.49,5.13-4.43,5.93a71.63,71.63,0,0,0-16.69,6.91c-2.82,1.6-5.08,1.24-7.45-1.07-1.79-1.75-3.51-3.55-5.31-5.28-2.93-2.83-6.57-2.83-9.47,0-2.71,2.66-5.41,5.35-8.07,8.07-2.84,2.9-2.83,6.54,0,9.47,1.69,1.75,3.45,3.43,5.15,5.17,2.48,2.53,2.82,4.73,1.1,7.75a70.19,70.19,0,0,0-6.77,16.35c-.86,3.1-2.79,4.55-6,4.6-2.56,0-5.12,0-7.67,0a6.31,6.31,0,0,0-6.56,6.63c0,3.86,0,7.73,0,11.59a6.32,6.32,0,0,0,6.46,6.54c2.62.05,5.24,0,7.86,0a5.61,5.61,0,0,1,5.86,4.51,71.47,71.47,0,0,0,6.84,16.52c1.67,2.94,1.32,5.15-1.08,7.61-1.74,1.78-3.54,3.5-5.27,5.3a6.3,6.3,0,0,0,0,9.33q4.05,4.15,8.2,8.2a6.32,6.32,0,0,0,9.34,0c1.76-1.68,3.44-3.43,5.17-5.14,2.59-2.56,4.78-2.91,7.9-1.13a71.79,71.79,0,0,0,16.18,6.71c3.29.92,4.67,2.8,4.7,6.28,0,2.49,0,5,0,7.48a6.32,6.32,0,0,0,6.54,6.46c3.87,0,7.73,0,11.6,0a6.32,6.32,0,0,0,6.63-6.56c0-2.37,0-4.74,0-7.11,0-3.85,1.31-5.6,5-6.63a69.36,69.36,0,0,0,15.82-6.59c3.21-1.84,5.36-1.51,8,1.15,1.69,1.67,3.33,3.37,5,5,2.94,2.82,6.58,2.83,9.48,0q4.08-4,8.07-8.07c2.84-2.9,2.83-6.52,0-9.47-1.68-1.76-3.44-3.44-5.14-5.18-2.49-2.53-2.83-4.71-1.11-7.74a71.28,71.28,0,0,0,6.78-16.35c.85-3.09,2.8-4.55,6-4.6,2.56,0,5.11,0,7.67,0a6.31,6.31,0,0,0,6.55-6.64c0-3.86,0-7.73,0-11.59A6.31,6.31,0,0,0,771.27,277.7Zm-78.18,54a41.65,41.65,0,1,1,41.74-41.51A41.64,41.64,0,0,1,693.09,331.73Z" transform="translate(-110.06 -158.56)" style="fill:#ff1d25"/><path d="M841.54,204.31c0-27.48-18.23-45.7-45.67-45.72q-51.4,0-102.82,0-51.7,0-103.41,0c-26.22,0-44.7,18.58-44.72,44.86q-.07,84.3,0,168.58c0,26.28,18.51,44.82,44.69,44.9,18.33.06,36.66.15,55-.09,4.32,0,5.84.82,5.68,5.48-.37,11.35.07,22.72-.18,34.07-.17,7.38,1.6,13.54,8.84,16.7s12.92,0,18.09-5.26c15.54-15.74,31.3-31.26,46.83-47a11.87,11.87,0,0,1,9.35-4c20.72.2,41.44.11,62.16.09,28,0,46.15-18.06,46.17-45.85Q841.57,287.71,841.54,204.31Zm-53,94.72c-1.07,8.42-8.33,14.43-16.83,14.66-1.48,0-3.28-.34-4.32.37s-1.1,2.53-1.65,3.85c-.89,2.12-1.73,4.27-2.79,6.31a1.86,1.86,0,0,0,.45,2.69c3.27,2.93,5.77,6.36,6.55,10.82a16.91,16.91,0,0,1-4.09,14.94c-3,3.33-6.21,6.49-9.47,9.57a17.53,17.53,0,0,1-24.63-.12c-3-2.81-2.95-2.77-6.73-1.13q-3.42,1.49-7,2.71a1.7,1.7,0,0,0-1.35,1.85,32,32,0,0,1-.62,7.22c-1.84,6.77-6.4,10.92-13.17,12.68-.4.11-.79.27-1.19.41H684.58c-.57-.2-1.14-.42-1.73-.57a17.55,17.55,0,0,1-10.9-8.2c-2.12-3.5-2.59-7.36-2.37-11.34a1.77,1.77,0,0,0-1.47-2.12c-2.3-.75-4.53-1.72-6.78-2.64-1.26-.52-2.61-1.72-3.7-1.5s-2.12,1.76-3.16,2.74a17.48,17.48,0,0,1-24.34.16c-3.33-3.1-6.57-6.31-9.62-9.68a16.85,16.85,0,0,1-4.1-15.1,18.07,18.07,0,0,1,5.53-9.74c2.14-2.1,2.09-2.11.88-4.75-.85-1.86-1.65-3.76-2.4-5.66-1.46-3.69-1.44-3.7-5.34-3.77a17.56,17.56,0,0,1-17.34-14.18,4.89,4.89,0,0,0-.34-.82V281.48a10.27,10.27,0,0,0,.37-1,17.6,17.6,0,0,1,17.13-14c4.09-.08,4.06-.09,5.6-3.94.88-2.2,1.76-4.4,2.84-6.5a2,2,0,0,0-.46-2.84c-3.23-2.89-5.69-6.27-6.48-10.66a16.92,16.92,0,0,1,4.12-15.1c3.06-3.36,6.3-6.58,9.63-9.68,7-6.5,17.37-6.57,24.12.17,2.48,2.47,4.3,3.13,7.31,1.22a30,30,0,0,1,6.57-2.63,1.73,1.73,0,0,0,1.45-2,33,33,0,0,1,.37-6.13,17.31,17.31,0,0,1,16.62-14.06,117.07,117.07,0,0,1,15.68.36,16.64,16.64,0,0,1,14.39,16.37c0,3.74.8,5.9,4.65,6.55a17.05,17.05,0,0,1,3.79,1.54c1.25.56,2.47,1.16,4.19,2a36.55,36.55,0,0,1,3.25-3.74,17.36,17.36,0,0,1,23.35,0c3.27,3,6.38,6.14,9.42,9.35,6.81,7.18,6.7,17.59-.15,24.77-2.75,2.88-2.72,2.86-1.19,6.41,1,2.34,2,4.71,2.82,7.11a1.69,1.69,0,0,0,2,1.39c4.05-.21,8,.22,11.52,2.43,5.49,3.42,8.49,8.37,8.63,14.83A103.9,103.9,0,0,1,788.58,299Z" transform="translate(-110.06 -158.56)" style="fill:#0071bc"/></svg>